<svg width="64" height="64" viewBox="0 0 64 64" fill="none" xmlns="http://www.w3.org/2000/svg">
<path d="M45.1602 8.72728H18.8399C15.9326 8.72728 13.5758 10.898 13.5758 13.5758V52.3636C13.5758 55.0414 15.9326 57.2121 18.8399 57.2121H45.1602C48.0675 57.2121 50.4243 55.0414 50.4243 52.3636V13.5758C50.4243 10.898 48.0675 8.72728 45.1602 8.72728Z" stroke="#662C62" stroke-width="2" stroke-linecap="round" stroke-linejoin="round"/>
<path d="M43.5757 16.4848H20.4242C19.3196 16.4848 18.4242 17.3803 18.4242 18.4848V22.2424C18.4242 23.347 19.3196 24.2424 20.4242 24.2424H43.5757C44.6803 24.2424 45.5757 23.347 45.5757 22.2424V18.4848C45.5757 17.3803 44.6803 16.4848 43.5757 16.4848Z" stroke="#662C62" stroke-width="2"/>
<path d="M20.4242 32H20.4502" stroke="#662C62" stroke-width="3" stroke-linecap="round" stroke-linejoin="round"/>
<path d="M32 32H32.026" stroke="#662C62" stroke-width="3" stroke-linecap="round" stroke-linejoin="round"/>
<path d="M32 39.7576H32.026" stroke="#662C62" stroke-width="3" stroke-linecap="round" stroke-linejoin="round"/>
<path d="M32 47.5151H32.026" stroke="#662C62" stroke-width="3" stroke-linecap="round" stroke-linejoin="round"/>
<path d="M43.5758 39.7576H43.6018" stroke="#662C62" stroke-width="3" stroke-linecap="round" stroke-linejoin="round"/>
<path d="M43.5758 47.5151H43.6018" stroke="#662C62" stroke-width="3" stroke-linecap="round" stroke-linejoin="round"/>
<path d="M20.4242 39.7576H20.4502" stroke="#662C62" stroke-width="3" stroke-linecap="round" stroke-linejoin="round"/>
<path d="M20.4242 48.4849H20.4502" stroke="#662C62" stroke-width="3" stroke-linecap="round" stroke-linejoin="round"/>
<path d="M43.5758 32H43.6018" stroke="#662C62" stroke-width="3" stroke-linecap="round" stroke-linejoin="round"/>
</svg>
